<?xml version="1.0" standalone="no"?>
<!DOCTYPE svg PUBLIC "-//W3C//DTD SVG 20010904//EN"
 "http://www.w3.org/TR/2001/REC-SVG-20010904/DTD/svg10.dtd">
<svg version="1.0" xmlns="http://www.w3.org/2000/svg"
 width="700.000000pt" height="700.000000pt" viewBox="0 0 700.000000 700.000000"
 preserveAspectRatio="xMidYMid meet">
<metadata>
Created by potrace 1.11, written by Peter Selinger 2001-2013
</metadata>
<g transform="translate(0.000000,700.000000) scale(0.100000,-0.100000)"
fill="#000000" stroke="none">
<path d="M3443 6980 c-17 -10 -37 -28 -42 -39 -7 -12 -11 -112 -11 -268 l0
-248 -583 -415 c-543 -388 -585 -415 -622 -414 -90 3 -204 93 -251 199 -35 82
-118 111 -177 65 -65 -51 -54 -134 34 -259 57 -82 128 -142 215 -183 96 -45
178 -58 372 -58 l172 0 0 -110 c0 -73 -4 -110 -11 -110 -6 0 -26 -7 -44 -16
-57 -27 -65 -59 -65 -258 l0 -176 -107 0 c-88 0 -114 -4 -138 -19 -24 -15 -69
-97 -240 -440 -160 -320 -214 -421 -228 -421 -31 0 -116 49 -156 90 -21 22
-54 70 -72 106 -26 53 -40 70 -67 81 -75 31 -152 -19 -152 -99 0 -102 134
-276 266 -345 101 -54 159 -65 372 -70 l192 -6 0 -107 0 -107 -30 -7 c-41 -8
-76 -48 -84 -94 -3 -20 -6 -108 -6 -194 l0 -158 -114 0 c-113 0 -115 0 -143
-29 -15 -16 -120 -213 -233 -440 -113 -226 -210 -411 -216 -411 -6 0 -38 14
-72 31 -68 34 -124 91 -154 158 -30 65 -62 91 -114 91 -86 0 -133 -76 -100
-162 45 -116 151 -230 268 -289 99 -50 153 -59 360 -59 l188 0 0 -115 c0 -108
-1 -115 -20 -115 -11 0 -34 -13 -52 -29 l-33 -29 -5 -639 -5 -638 -328 -5
-329 -5 -29 -33 c-33 -37 -37 -77 -14 -122 34 -65 -184 -60 2665 -60 2849 0
2631 -5 2665 60 23 45 19 85 -14 122 l-29 33 -329 5 -328 5 -3 783 -2 782 131
0 c191 0 297 33 416 130 83 68 173 211 173 276 0 40 -27 80 -65 99 -65 30
-124 1 -159 -79 -33 -73 -86 -130 -158 -166 -34 -16 -66 -30 -72 -30 -6 0
-103 185 -216 411 -113 227 -218 424 -233 440 -28 29 -30 29 -143 29 l-114 0
0 333 0 334 138 6 c158 7 232 26 331 84 117 70 241 235 241 321 0 69 -44 112
-113 112 -46 0 -82 -30 -112 -95 -14 -29 -44 -72 -66 -95 -39 -40 -127 -90
-159 -90 -10 0 -87 144 -225 421 -171 343 -216 425 -240 440 -24 15 -50 19
-137 19 l-108 0 0 335 0 335 113 0 c247 1 410 75 526 241 64 91 87 156 71 204
-15 45 -54 75 -97 75 -58 0 -90 -25 -123 -94 -49 -103 -158 -187 -245 -190
-37 -1 -78 26 -622 414 l-583 415 0 250 c0 274 -1 280 -60 310 -39 20 -69 19
-107 -5z m1047 -6195 l0 -555 -440 0 -440 0 0 555 0 555 440 0 440 0 0 -555z"/>
</g>
</svg>
