<svg xmlns="http://www.w3.org/2000/svg" xmlns:xlink="http://www.w3.org/1999/xlink"><symbol id="arrow-right-ico" viewBox="0 0 33 8">
<path d="M24.7706 3H0V5H24.7706V8L33 4L24.7706 0V3Z" fill="#006DFE"/>
</symbol><symbol id="benefits01" viewBox="0 0 470 470">
  <path fill="#d19884" d="M242.5 380h59.26v75H242.5z"/>
  <path fill="#c1765b" d="M168.24 380h59.26v75h-59.26z"/>
  <path fill="#3f3736" d="M102.88 335h264.24l-22.5-45H125.38zM132.88 215h204.24l-22.5-45H155.38zM235 51.71L174.21 95h121.58z"/>
  <path fill="#ff382e" d="M178.24 132.5V155h113.51v-45H170.74v15a7.5 7.5 0 017.5 7.5zM148.24 252.5V275h173.51v-45H140.74v15a7.5 7.5 0 017.5 7.5zM118.24 372.5V455h35v-75h-2.5a7.5 7.5 0 010-15h2.5v-15h-42.5v15a7.5 7.5 0 017.5 7.5zM351.75 350h-35v15h2.5a7.5 7.5 0 010 15h-2.5v75h35V350zM168.24 350h133.51v15H168.24z"/>
  <path fill="#1c1918" d="M407.5 455h-40.75V350h12.49a37.61 37.61 0 0035.33-24.96 7.5 7.5 0 00-14.13-5.03 22.59 22.59 0 01-16.78 14.53l-27.7-55.4a7.5 7.5 0 00-6.7-4.14h-12.5v-45h12.48a37.61 37.61 0 0035.33-24.96 7.5 7.5 0 00-14.13-5.03 22.6 22.6 0 01-16.78 14.53l-27.7-55.4a7.5 7.5 0 00-6.7-4.14h-12.5v-45h12.48a37.6 37.6 0 0035.33-24.96A7.5 7.5 0 00340.44 80a22.57 22.57 0 01-18.96 14.87L242.5 38.63V7.5a7.5 7.5 0 00-15 0v31.13l-78.98 56.24a22.58 22.58 0 01-18.95-14.86 7.5 7.5 0 10-14.13 5.04 37.59 37.59 0 0035.3 24.95h141.01v45h-113.5v-22.5a7.5 7.5 0 00-15 0V155h-12.5a7.5 7.5 0 00-6.71 4.15l-27.7 55.4A22.6 22.6 0 0199.56 200a7.5 7.5 0 10-14.12 5.04 37.59 37.59 0 0035.3 24.95h201.01v45h-173.5v-22.5a7.5 7.5 0 00-15 0V275h-12.5a7.5 7.5 0 00-6.71 4.15l-27.7 55.4A22.6 22.6 0 0169.56 320a7.5 7.5 0 00-14.12 5.04A37.59 37.59 0 0090.74 350h62.5v15h-2.5a7.5 7.5 0 000 15h2.5v75h-35v-82.5a7.5 7.5 0 00-15 0V455H62.5a7.5 7.5 0 000 15h345a7.5 7.5 0 000-15zm-180-75v75h-59.26v-75h59.26zm15 0h59.25v75H242.5v-75zm74.25 0h2.5a7.5 7.5 0 000-15h-2.5v-15h35v105h-35v-75zm27.87-90l22.5 45H102.88l22.5-45h219.24zm-30-120l22.5 45H132.88l22.5-45h159.24zM235 51.7L295.8 95H174.2L235 51.7zM168.24 350h133.51v15h-133.5v-15z"/>
</symbol><symbol id="benefits02" viewBox="0 0 470 470">
  <path fill="#fff" d="M187.17 321.8L235 383.43l47.83-61.63c-15.02-5.12-31.1-7.9-47.83-7.9s-32.81 2.78-47.83 7.9z"/>
  <path fill="#ff382e" d="M156.39 435H313.6v20H156.39z"/>
  <path fill="#ffb8b4" d="M351.1 455h32.32c-2.82-56.5-37.35-104.79-86.11-127.4l-71.7 92.4h95.5a7.5 7.5 0 017.5 7.5v35h15a7.5 7.5 0 017.5-7.5z"/>
  <path fill="#ff8882" d="M148.9 420h57.73l18.88-24.33-52.82-68.07C123.93 350.21 89.4 398.5 86.58 455h32.31a7.5 7.5 0 017.5 7.5h15v-35a7.5 7.5 0 017.5-7.5z"/>
  <path fill="#fff" d="M269.03 126.53c-5.75 7.02-14.5 11.64-23.65 11.64h-20.76c-9.16 0-17.9-4.62-23.66-11.64a70.61 70.61 0 00-36.51 61.81c0 38.9 31.64 70.55 70.55 70.55s70.55-31.64 70.55-70.55a70.6 70.6 0 00-36.52-61.8zm-46.23 67.81a7.5 7.5 0 01-14.85 1.5h-9.92a7.5 7.5 0 110-15h17.27a7.5 7.5 0 017.5 7.5v6zm49.17 1.5h-9.92a7.5 7.5 0 01-14.85-1.5v-6a7.5 7.5 0 017.5-7.5h17.27a7.5 7.5 0 110 15z"/>
  <path fill="#ff382e" d="M204.85 78.66l.97 6.92 3.43 24.23c.19 1.33.58 2.63 1.14 3.85l.09.18c2.55 5.36 8.25 9.33 14.14 9.33h20.76c5.88 0 11.57-3.96 14.11-9.27l.03-.07.1-.22c.56-1.2.95-2.48 1.13-3.8l4.4-31.15c.44-3.08-.32-5.93-2.13-8.02-1.81-2.08-4.53-3.23-7.64-3.23h-40.76c-3.12 0-5.83 1.15-7.64 3.23-1.81 2.09-2.57 4.94-2.13 8.02z"/>
  <path fill="#655f5e" d="M277.67 97.31l-2.07 14.6c-.04.35-.1.68-.17 1.02a85.62 85.62 0 0145.12 75.38V215a7.5 7.5 0 0015 0v-26.66c0-39.1-22.92-74.58-57.88-91.03z"/>
  <path fill="#3f3736" d="M149.45 215v-26.66a85.63 85.63 0 0145.12-75.4c-.06-.35-.13-.68-.17-1.03l-2.07-14.6c-34.96 16.45-57.88 51.93-57.88 91.03V215a7.5 7.5 0 0015 0z"/>
  <path fill="#3f3736" d="M156.13 104c9.8-9.19 21.26-16.74 34.02-22.13l-.16-1.1a25 25 0 015.66-19.96 25 25 0 0118.97-8.4h40.76a25 25 0 0118.97 8.4A25 25 0 01280 80.76l-.16 1.1a115.27 115.27 0 0134.02 22.15c.38-3.16.58-6.35.58-9.56C314.45 50.65 278.81 15 235 15s-79.45 35.64-79.45 79.45c0 3.21.2 6.4.58 9.56z"/>
  <path fill="#1c1918" d="M306.72 315.48l3.48-4.49a7.5 7.5 0 00-11.85-9.2l-5.85 7.54c-17.9-6.74-37.27-10.44-57.5-10.44s-39.6 3.7-57.5 10.44l-5.85-7.53a7.5 7.5 0 00-11.85 9.2l3.48 4.48C108.92 342.1 71.4 398 71.4 462.5a7.5 7.5 0 007.5 7.5h40a7.5 7.5 0 100-15H86.58c2.82-56.5 37.35-104.79 86.1-127.4l52.83 68.07L206.63 420h-57.74a7.5 7.5 0 00-7.5 7.5v35a7.5 7.5 0 007.5 7.5h172.22a7.5 7.5 0 007.5-7.5v-35a7.5 7.5 0 00-7.5-7.5h-95.5l71.7-92.4c48.76 22.61 83.29 70.9 86.11 127.4h-32.31a7.5 7.5 0 100 15h40a7.5 7.5 0 007.5-7.5c0-64.5-37.53-120.4-91.9-147.02zM235 383.43l-47.83-61.63c15.02-5.12 31.1-7.9 47.83-7.9s32.81 2.78 47.83 7.9L235 383.43zM313.6 455H156.4v-20h157.2v20zM141.95 237.5c7.18 0 13.6-3.4 17.71-8.66A85.62 85.62 0 00235 273.9a85.62 85.62 0 0075.34-45.05 22.47 22.47 0 0017.71 8.66c12.4 0 22.5-10.1 22.5-22.5v-26.66a115.5 115.5 0 00-24.05-70.41 94.65 94.65 0 002.95-23.48C329.45 42.37 287.08 0 235 0s-94.45 42.37-94.45 94.45c0 7.96 1 15.84 2.95 23.48a115.5 115.5 0 00-24.05 70.41V215c0 12.4 10.09 22.5 22.5 22.5zM235 15c43.81 0 79.45 35.64 79.45 79.45 0 3.21-.2 6.4-.58 9.56a115.27 115.27 0 00-34.02-22.14l.15-1.1a25 25 0 00-5.66-19.96 25 25 0 00-18.96-8.4h-40.76a25 25 0 00-18.97 8.4A25 25 0 00190 80.76l.16 1.1a115.3 115.3 0 00-34.03 22.15 80.2 80.2 0 01-.58-9.56C155.54 50.65 191.2 15 235 15zm100.55 200a7.5 7.5 0 01-15 0v-26.66a85.64 85.64 0 00-45.12-75.4c.06-.35.13-.68.17-1.03l2.07-14.6c34.96 16.45 57.88 51.93 57.88 91.03V215zM235 258.9a70.63 70.63 0 01-70.55-70.56 70.61 70.61 0 0136.52-61.8c5.75 7 14.5 11.63 23.65 11.63h20.76c9.16 0 17.9-4.62 23.66-11.64a70.6 70.6 0 0136.51 61.81A70.63 70.63 0 01235 258.9zM134.45 215v-26.66c0-39.1 22.92-74.58 57.88-91.03l2.07 14.6c.04.35.1.69.17 1.02a85.62 85.62 0 00-45.12 75.38v26.7a7.5 7.5 0 01-15-.01zm80.17-147.6h40.76c3.11 0 5.83 1.16 7.64 3.24 1.81 2.09 2.57 4.94 2.14 8.02l-4.4 31.15a13.98 13.98 0 01-1.13 3.8l-.11.23-.03.06c-2.54 5.31-8.23 9.27-14.11 9.27h-20.76c-5.88 0-11.6-3.97-14.13-9.3l-.1-.21a13.97 13.97 0 01-1.14-3.85l-3.42-24.2-.98-6.95c-.44-3.08.32-5.93 2.13-8.02 1.81-2.08 4.53-3.23 7.64-3.23z"/>
  <path fill="#1c1918" d="M215.3 180.84h-17.27a7.5 7.5 0 100 15h9.92a7.5 7.5 0 0014.85-1.5v-6a7.5 7.5 0 00-7.5-7.5zM271.97 180.84H254.7a7.5 7.5 0 00-7.5 7.5v6a7.5 7.5 0 0014.85 1.5h9.92a7.5 7.5 0 100-15z"/>
</symbol><symbol id="benefits03" viewBox="0 0 470 470">
  <path fill="#ffc743" d="M265.45 259.38c0-41.9-30.2-76.85-69.97-84.3l-23.7 44.69a7.63 7.63 0 003.18 10.37 7.68 7.68 0 0010.38-3.18l9.87-18.61a7.5 7.5 0 1113.25 7.03l-3.5 6.6a51.06 51.06 0 016.13 24.29v90.6a7.5 7.5 0 01-7.5 7.5h-24.15v8.8h33.31A22.2 22.2 0 00234.33 336v-19.11a7.5 7.5 0 1115 0v12.5h94.62v-22.5a7.5 7.5 0 1115 0v29.11a22.2 22.2 0 0021.59 17.19h11v-64.14a22.19 22.19 0 00-22.15-22.16h-96.44a7.5 7.5 0 01-7.5-7.5z"/>
  <path fill="#19abbf" d="M45 386.62v25.88c0 6.9 5.6 12.5 12.5 12.5h55.88c6.9 0 12.5-5.6 12.5-12.5v-55.88c0-6.9-5.6-12.5-12.5-12.5H57.5c-6.9 0-12.5 5.6-12.5 12.5a7.5 7.5 0 01-7.5 7.5v15a7.5 7.5 0 017.5 7.5z"/>
  <path fill="#fff" d="M260 117.93c0 13.79-11.21 25-25 25s-25-11.21-25-25a25.04 25.04 0 0117.5-23.85V79.36L15 116.73V455h440V116.73L242.5 79.36v14.72a25.04 25.04 0 0117.5 23.85zM69.81 252.59a7.5 7.5 0 010-10.9l15.2-14.37-15.2-14.38a7.5 7.5 0 010-10.89l20.95-19.82a7.5 7.5 0 1110.3 10.9L85.89 207.5l15.19 14.37a7.5 7.5 0 010 10.9l-15.19 14.37 15.19 14.38a7.5 7.5 0 010 10.9l-15.19 14.37 15.19 14.38a7.5 7.5 0 01-10.31 10.9L69.8 292.23a7.5 7.5 0 010-10.9l15.2-14.37-15.2-14.38zm71.07 159.91a27.53 27.53 0 01-27.5 27.5H57.5A27.53 27.53 0 0130 412.5v-25.89a7.5 7.5 0 017.5-7.5v-15a7.5 7.5 0 01-7.5-7.5 27.53 27.53 0 0127.5-27.5h55.88a27.53 27.53 0 0127.5 27.5v55.89zm261.96-160.62A37.2 37.2 0 01440 289.04v38.18a7.5 7.5 0 11-15 0v-38.18a22.19 22.19 0 00-22.16-22.16h-3.64a36.97 36.97 0 017.35 22.16v64.13h14.8a7.5 7.5 0 017.5 7.5v56.9l8.95 8.96a7.5 7.5 0 11-10.6 10.6l-11.15-11.15a7.5 7.5 0 01-2.2-5.3v-52.5h-25.81v49.4l8.95 8.95a7.5 7.5 0 11-10.6 10.6l-11.16-11.15a7.5 7.5 0 01-2.2-5.3V367.4a37.34 37.34 0 01-27.18-23.03h-98.41a37.28 37.28 0 01-34.69 23.8h-33.31v27.1l8.95 8.95a7.5 7.5 0 11-10.6 10.61l-11.15-11.15a7.5 7.5 0 01-2.2-5.3v-61.5a7.5 7.5 0 017.5-7.5h24.15v-83.12c0-2.57-.28-5.12-.81-7.6a22.76 22.76 0 01-16.76 7.37c-3.58 0-7.2-.85-10.58-2.64a22.52 22.52 0 01-11.05-13.37 22.52 22.52 0 011.64-17.28l20.77-39.16a7.5 7.5 0 01.37-14.98c53.04 0 96.65 41.2 100.5 93.28h122.67z"/>
  <path fill="#1c1918" d="M463.8 103.04l-221.3-38.9v15.22L455 116.73V455H15V116.73l212.5-37.37V64.13L6.2 103.04a7.5 7.5 0 00-6.2 7.39V462.5a7.5 7.5 0 007.5 7.5h455a7.5 7.5 0 007.5-7.5V110.43a7.5 7.5 0 00-6.2-7.39z"/>
  <path fill="#1c1918" d="M67.47 286.79a7.5 7.5 0 002.35 5.45l20.94 19.82a7.47 7.47 0 0010.6-.29 7.5 7.5 0 00-.29-10.6l-15.19-14.38 15.19-14.38a7.5 7.5 0 000-10.9l-15.19-14.37 15.19-14.37a7.5 7.5 0 000-10.9L85.88 207.5l15.19-14.38a7.5 7.5 0 10-10.31-10.9L69.8 202.06a7.5 7.5 0 000 10.9l15.2 14.37-15.2 14.38a7.5 7.5 0 000 10.89l15.2 14.37-15.2 14.38a7.5 7.5 0 00-2.34 5.45zM179.67 158.6a7.5 7.5 0 00-.37 14.98l-20.77 39.16a22.52 22.52 0 00-1.64 17.28 22.52 22.52 0 0011.05 13.37c3.37 1.8 7 2.64 10.58 2.64 6.3 0 12.42-2.63 16.76-7.37.53 2.48.8 5.03.8 7.6v83.11h-24.14a7.5 7.5 0 00-7.5 7.5v61.5c0 2 .8 3.9 2.2 5.31l11.15 11.15a7.48 7.48 0 0010.6 0 7.5 7.5 0 000-10.6l-8.95-8.96v-27.1h33.31c15.52 0 29.25-9.7 34.69-23.8h98.41a37.34 37.34 0 0027.19 23.03v53.28c0 1.99.79 3.9 2.2 5.3l11.14 11.15a7.48 7.48 0 0010.61 0 7.5 7.5 0 000-10.6l-8.95-8.96v-49.4h25.81v52.5c0 2 .8 3.9 2.2 5.31l11.15 11.15a7.48 7.48 0 0010.6 0 7.5 7.5 0 000-10.6l-8.95-8.96v-56.9a7.5 7.5 0 00-7.5-7.5h-14.8v-64.13c0-8.3-2.74-15.97-7.35-22.16h3.64A22.19 22.19 0 01425 289.04v38.18a7.5 7.5 0 1015 0v-38.18a37.2 37.2 0 00-37.16-37.16H280.17c-3.85-52.08-47.46-93.28-100.5-93.28zm189.72 108.28a22.19 22.19 0 0122.16 22.16v64.13h-11.01A22.2 22.2 0 01358.96 336v-29.12a7.5 7.5 0 10-15 0v22.5h-94.63v-12.5a7.5 7.5 0 10-15 0V336a22.2 22.2 0 01-21.58 17.18h-33.3v-8.8h24.14a7.5 7.5 0 007.5-7.5v-90.6c0-8.55-2.11-16.86-6.13-24.3l3.5-6.6a7.5 7.5 0 00-13.25-7.03l-9.87 18.62a7.68 7.68 0 01-13.56-7.2l23.7-44.68c39.77 7.45 69.97 42.4 69.97 84.3a7.5 7.5 0 007.5 7.5h96.44zM210 117.93c0 13.79 11.21 25 25 25s25-11.21 25-25a25.04 25.04 0 00-17.5-23.85v16.35c0 .29-.02.57-.05.85a9.95 9.95 0 012.55 6.65 10.01 10.01 0 01-20 0c0-2.55.97-4.88 2.55-6.65a7.71 7.71 0 01-.05-.85V94.08a25.04 25.04 0 00-17.5 23.85zM113.39 329.12H57.5a27.53 27.53 0 00-27.5 27.5 7.5 7.5 0 1015 0c0-6.9 5.6-12.5 12.5-12.5h55.88c6.9 0 12.5 5.6 12.5 12.5v55.88c0 6.9-5.6 12.5-12.5 12.5H57.5c-6.9 0-12.5-5.6-12.5-12.5v-25.89a7.5 7.5 0 10-15 0v25.89A27.53 27.53 0 0057.5 440h55.88a27.53 27.53 0 0027.5-27.5v-55.88a27.53 27.53 0 00-27.5-27.5z"/>
  <path fill="#ff382e" d="M227.5 110.43a7.5 7.5 0 1015 0V7.5a7.5 7.5 0 10-15 0v102.93z"/>
</symbol><symbol id="circle-ico" viewBox="0 0 20 20">
<path d="M19 10C19 14.9706 14.9706 19 10 19C5.02944 19 1 14.9706 1 10C1 5.02944 5.02944 1 10 1C14.9706 1 19 5.02944 19 10Z" stroke="white" stroke-width="2"/>
</symbol><symbol id="comment-ico" viewBox="0 0 14 14">
<path d="M12.6 0C13.37 0 13.993 0.63 13.993 1.4L14 14L11.2 11.2H1.4C0.63 11.2 0 10.57 0 9.8V1.4C0 0.63 0.63 0 1.4 0H12.6ZM2.8 8.4H11.2V7H2.8V8.4ZM11.2 6.3H2.8V4.9H11.2V6.3ZM2.8 4.2H11.2V2.8H2.8V4.2Z" fill=""/>
</symbol><symbol id="heart-ico" viewBox="0 0 16 15">
<path d="M8 15L6.84 13.921C2.72 10.1035 0 7.58583 0 4.49591C0 1.9782 1.936 0 4.4 0C5.792 0 7.128 0.662125 8 1.70845C8.872 0.662125 10.208 0 11.6 0C14.064 0 16 1.9782 16 4.49591C16 7.58583 13.28 10.1035 9.16 13.9292L8 15Z"/>
</symbol><symbol id="odigo-logo" viewBox="0 0 82 31">
  <path fill="" fill-rule="evenodd" d="M81.458 12.085c-.367-1.169-.877-2.226-1.594-3.148-.718-.923-1.594-1.59-2.63-2.091a4.689 4.689 0 00-.957-.398s-.112-.064-.215-.064c-.048 0-.104 0-.16-.055-.04 0-.095 0-.095-.056l-.757-.159c-.558-.095-1.276-.143-2.105-.095-1.227.055-2.311.318-3.267.763a8.036 8.036 0 00-2.63 2.083c-.718.922-1.228 1.932-1.595 3.156-.35 1.161-.51 2.481-.51 3.801 0 1.376.16 2.648.518 3.816a10.278 10.278 0 001.594 3.101 8.496 8.496 0 001.754 1.574c.303.207.558.358.877.51h.04s.047 0 .047.047c.034 0 .05.016.065.03.013.014.025.026.047.026.518.254 1.084.397 1.697.509 1.794.35 3.332.103 3.332.103.821-.104 1.594-.358 2.312-.668a7.773 7.773 0 002.67-2.083c.717-.859 1.227-1.932 1.594-3.1.35-1.17.51-2.442.51-3.817 0-1.368-.207-2.64-.518-3.817l-.024.032zm-12.012 1.113c.208-.795.463-1.566.821-2.178.359-.604.821-1.113 1.331-1.463A3.13 3.13 0 0173.392 9c.67 0 1.235.143 1.753.501.51.35.917.795 1.276 1.368.358.612.621 1.272.82 2.083.216.81.32 1.63.32 2.544v.302c0 .914-.104 1.829-.256 2.64-.207.819-.462 1.526-.82 2.146A4.486 4.486 0 0175.144 22c-.51.358-1.116.509-1.793.509-.67 0-1.275-.16-1.793-.51a4.38 4.38 0 01-1.34-1.43c-.366-.605-.621-1.312-.828-2.131-.2-.811-.256-1.726-.256-2.64.056-.874.16-1.78.32-2.592l-.009-.008zM58.2 25.713l-1.993 2.282L56 28.2 56.207 31h3.077l3.236-3.61V15.91l-.096-.875-4.224 2.178v8.5z" clip-rule="evenodd"/>
  <path fill="" fill-rule="evenodd" d="M32.279 5.222l-2.013-2.218L30 2.815 30.21 0l3.1.047 3.334 3.57v11.616l-.097.645-4.268-2.202V5.222zm28.57 3.122c.726.912 1.241 1.958 1.612 3.114l.016-.031c.362 1.163.523 2.422.523 3.774 0 1.36-.161 2.62-.515 3.775-.37 1.156-.886 2.218-1.61 3.067a7.756 7.756 0 01-2.699 2.06c-.724.307-1.505.559-2.335.661 0 0-1.554.244-3.366-.102-.62-.11-1.192-.252-1.707-.503-.03 0-.043-.015-.057-.03-.012-.013-.024-.026-.048-.026 0-.047-.056-.047-.056-.047h-.04a6.204 6.204 0 01-.886-.503 8.737 8.737 0 01-1.772-1.557 10.09 10.09 0 01-1.61-3.067c-.355-1.156-.516-2.414-.516-3.775 0-1.305.153-2.61.508-3.759.37-1.211.885-2.21 1.61-3.122a8.092 8.092 0 012.658-2.06c.966-.44 2.061-.7 3.301-.755.838-.047 1.562 0 2.126.094l.765.157c0 .055.056.055.097.055a.211.211 0 00.16.055c.105 0 .218.063.218.063.306.079.669.236.967.394 1.046.495 1.932 1.156 2.657 2.068zm-9.646 2.06c-.363.606-.62 1.369-.822 2.155l.008.008c-.206.792-.264 1.676-.32 2.53l-.002.034c0 .904.049 1.808.258 2.61.21.81.467 1.51.83 2.108.362.613.829 1.062 1.344 1.416.524.346 1.144.503 1.828.503.669 0 1.297-.15 1.812-.503a4.433 4.433 0 001.337-1.4c.362-.614.628-1.314.83-2.124.16-.802.273-1.706.273-2.61v-.3c0-.904-.113-1.714-.322-2.516-.21-.802-.467-1.455-.83-2.06a4.574 4.574 0 00-1.288-1.353c-.523-.354-1.095-.495-1.772-.495-.684 0-1.296.196-1.811.55-.524.346-.99.85-1.353 1.447zm-12.24-4.868h4.348V25h-4.348V5.536z" clip-rule="evenodd"/>
  <path fill="" fill-rule="evenodd" d="M41.007 1a2 2 0 00-1.994 2.005c0 1.162.893 2.053 1.994 2.004A2 2 0 0043 3.005 2 2 0 0041.007 1zM14.926 9.171c.718.93 1.228 1.997 1.595 3.176l.016-.032c.358 1.187.518 2.47.518 3.849 0 1.387-.16 2.67-.51 3.849-.367 1.179-.878 2.261-1.595 3.127a7.71 7.71 0 01-2.671 2.101c-.718.313-1.491.57-2.312.674 0 0-1.54.248-3.333-.104-.614-.113-1.18-.257-1.699-.514-.047 0-.047 0-.095-.056 0-.048-.056-.048-.056-.048h-.04a6.096 6.096 0 01-.877-.513 8.736 8.736 0 01-1.754-1.588c-.718-.882-1.228-1.9-1.595-3.127C.16 18.786 0 17.503 0 16.115c0-1.33.16-2.661.51-3.832.367-1.235.877-2.254 1.595-3.184A8.05 8.05 0 014.736 7c.957-.45 2.041-.714 3.27-.77.828-.049 1.546 0 2.104.096l.758.16c0 .056.055.056.095.056.064.056.112.056.16.056.103 0 .215.064.215.064.303.08.662.241.957.401 1.036.506 1.913 1.18 2.631 2.11zm21.057 3.176c-.366-1.179-.877-2.245-1.594-3.176-.718-.93-1.595-1.603-2.631-2.109a4.671 4.671 0 00-.957-.4s-.112-.065-.215-.065c-.048 0-.104 0-.16-.056-.048 0-.096 0-.096-.056l-.765-.16a9.352 9.352 0 00-2.097-.097c-1.228.057-2.312.321-3.269.77A8.049 8.049 0 0021.568 9.1c-.718.93-1.228 1.949-1.595 3.184-.35 1.17-.51 2.502-.51 3.833 0 1.387.16 2.67.518 3.849a10.22 10.22 0 001.595 3.127 8.525 8.525 0 001.754 1.588c.303.209.917.513.917.513s.048 0 .048.048c.034 0 .05.017.064.031.013.013.025.026.047.026.518.256 1.077.4 1.699.513 1.794.352 3.332.104 3.332.104.822-.104 1.595-.36 2.313-.674a7.784 7.784 0 002.67-2.1c.718-.867 1.229-1.95 1.595-3.128.351-1.179.503-2.462.503-3.85 0-1.378-.2-2.661-.51-3.848l-.025.032zM23.968 13.47c.207-.802.462-1.58.821-2.198.359-.61.821-1.122 1.331-1.475a3.114 3.114 0 011.794-.562c.67 0 1.236.145 1.755.506.51.353.917.802 1.275 1.379.36.617.614 1.283.822 2.1.215.819.319 1.645.319 2.567v.305c0 .922-.104 1.844-.256 2.662-.207.826-.462 1.54-.82 2.165a4.509 4.509 0 01-1.34 1.427c-.51.361-1.117.514-1.794.514-.67 0-1.276-.16-1.794-.514a4.404 4.404 0 01-1.34-1.443c-.367-.61-.622-1.323-.83-2.149-.198-.818-.254-1.74-.254-2.662.056-.882.16-1.796.319-2.614l-.008-.008zm-19.407 0c.2-.802.454-1.58.813-2.198.359-.61.821-1.122 1.34-1.475a3.06 3.06 0 011.794-.562c.67 0 1.235.145 1.754.506.502.353.917.802 1.275 1.379.36.617.614 1.283.822 2.1.207.819.319 1.645.319 2.567l-.016.305c0 .922-.096 1.844-.256 2.662-.199.826-.462 1.54-.82 2.165a4.466 4.466 0 01-1.324 1.427c-.51.361-1.133.514-1.794.514-.678 0-1.292-.16-1.81-.514a4.47 4.47 0 01-1.332-1.443c-.319-.505-.558-1.219-.773-2.085-.208-.826-.263-1.764-.263-2.678 0-.922.055-1.845.255-2.663l.016-.008z" clip-rule="evenodd"/>
</symbol></svg>