<?xml version="1.0" encoding="iso-8859-1"?>
<svg xmlns="http://www.w3.org/2000/svg" viewBox="0 0 470 470">
  <path fill="#d19884" d="M242.5 380h59.26v75H242.5z"/>
  <path fill="#c1765b" d="M168.24 380h59.26v75h-59.26z"/>
  <path fill="#3f3736" d="M102.88 335h264.24l-22.5-45H125.38zM132.88 215h204.24l-22.5-45H155.38zM235 51.71L174.21 95h121.58z"/>
  <path fill="#ff382e" d="M178.24 132.5V155h113.51v-45H170.74v15a7.5 7.5 0 017.5 7.5zM148.24 252.5V275h173.51v-45H140.74v15a7.5 7.5 0 017.5 7.5zM118.24 372.5V455h35v-75h-2.5a7.5 7.5 0 010-15h2.5v-15h-42.5v15a7.5 7.5 0 017.5 7.5zM351.75 350h-35v15h2.5a7.5 7.5 0 010 15h-2.5v75h35V350zM168.24 350h133.51v15H168.24z"/>
  <path fill="#1c1918" d="M407.5 455h-40.75V350h12.49a37.61 37.61 0 0035.33-24.96 7.5 7.5 0 00-14.13-5.03 22.59 22.59 0 01-16.78 14.53l-27.7-55.4a7.5 7.5 0 00-6.7-4.14h-12.5v-45h12.48a37.61 37.61 0 0035.33-24.96 7.5 7.5 0 00-14.13-5.03 22.6 22.6 0 01-16.78 14.53l-27.7-55.4a7.5 7.5 0 00-6.7-4.14h-12.5v-45h12.48a37.6 37.6 0 0035.33-24.96A7.5 7.5 0 00340.44 80a22.57 22.57 0 01-18.96 14.87L242.5 38.63V7.5a7.5 7.5 0 00-15 0v31.13l-78.98 56.24a22.58 22.58 0 01-18.95-14.86 7.5 7.5 0 10-14.13 5.04 37.59 37.59 0 0035.3 24.95h141.01v45h-113.5v-22.5a7.5 7.5 0 00-15 0V155h-12.5a7.5 7.5 0 00-6.71 4.15l-27.7 55.4A22.6 22.6 0 0199.56 200a7.5 7.5 0 10-14.12 5.04 37.59 37.59 0 0035.3 24.95h201.01v45h-173.5v-22.5a7.5 7.5 0 00-15 0V275h-12.5a7.5 7.5 0 00-6.71 4.15l-27.7 55.4A22.6 22.6 0 0169.56 320a7.5 7.5 0 00-14.12 5.04A37.59 37.59 0 0090.74 350h62.5v15h-2.5a7.5 7.5 0 000 15h2.5v75h-35v-82.5a7.5 7.5 0 00-15 0V455H62.5a7.5 7.5 0 000 15h345a7.5 7.5 0 000-15zm-180-75v75h-59.26v-75h59.26zm15 0h59.25v75H242.5v-75zm74.25 0h2.5a7.5 7.5 0 000-15h-2.5v-15h35v105h-35v-75zm27.87-90l22.5 45H102.88l22.5-45h219.24zm-30-120l22.5 45H132.88l22.5-45h159.24zM235 51.7L295.8 95H174.2L235 51.7zM168.24 350h133.51v15h-133.5v-15z"/>
</svg>
