<?xml version="1.0" encoding="iso-8859-1"?>
<svg xmlns="http://www.w3.org/2000/svg" viewBox="0 0 470 470">
  <path fill="#ffc743" d="M265.45 259.38c0-41.9-30.2-76.85-69.97-84.3l-23.7 44.69a7.63 7.63 0 003.18 10.37 7.68 7.68 0 0010.38-3.18l9.87-18.61a7.5 7.5 0 1113.25 7.03l-3.5 6.6a51.06 51.06 0 016.13 24.29v90.6a7.5 7.5 0 01-7.5 7.5h-24.15v8.8h33.31A22.2 22.2 0 00234.33 336v-19.11a7.5 7.5 0 1115 0v12.5h94.62v-22.5a7.5 7.5 0 1115 0v29.11a22.2 22.2 0 0021.59 17.19h11v-64.14a22.19 22.19 0 00-22.15-22.16h-96.44a7.5 7.5 0 01-7.5-7.5z"/>
  <path fill="#19abbf" d="M45 386.62v25.88c0 6.9 5.6 12.5 12.5 12.5h55.88c6.9 0 12.5-5.6 12.5-12.5v-55.88c0-6.9-5.6-12.5-12.5-12.5H57.5c-6.9 0-12.5 5.6-12.5 12.5a7.5 7.5 0 01-7.5 7.5v15a7.5 7.5 0 017.5 7.5z"/>
  <path fill="#fff" d="M260 117.93c0 13.79-11.21 25-25 25s-25-11.21-25-25a25.04 25.04 0 0117.5-23.85V79.36L15 116.73V455h440V116.73L242.5 79.36v14.72a25.04 25.04 0 0117.5 23.85zM69.81 252.59a7.5 7.5 0 010-10.9l15.2-14.37-15.2-14.38a7.5 7.5 0 010-10.89l20.95-19.82a7.5 7.5 0 1110.3 10.9L85.89 207.5l15.19 14.37a7.5 7.5 0 010 10.9l-15.19 14.37 15.19 14.38a7.5 7.5 0 010 10.9l-15.19 14.37 15.19 14.38a7.5 7.5 0 01-10.31 10.9L69.8 292.23a7.5 7.5 0 010-10.9l15.2-14.37-15.2-14.38zm71.07 159.91a27.53 27.53 0 01-27.5 27.5H57.5A27.53 27.53 0 0130 412.5v-25.89a7.5 7.5 0 017.5-7.5v-15a7.5 7.5 0 01-7.5-7.5 27.53 27.53 0 0127.5-27.5h55.88a27.53 27.53 0 0127.5 27.5v55.89zm261.96-160.62A37.2 37.2 0 01440 289.04v38.18a7.5 7.5 0 11-15 0v-38.18a22.19 22.19 0 00-22.16-22.16h-3.64a36.97 36.97 0 017.35 22.16v64.13h14.8a7.5 7.5 0 017.5 7.5v56.9l8.95 8.96a7.5 7.5 0 11-10.6 10.6l-11.15-11.15a7.5 7.5 0 01-2.2-5.3v-52.5h-25.81v49.4l8.95 8.95a7.5 7.5 0 11-10.6 10.6l-11.16-11.15a7.5 7.5 0 01-2.2-5.3V367.4a37.34 37.34 0 01-27.18-23.03h-98.41a37.28 37.28 0 01-34.69 23.8h-33.31v27.1l8.95 8.95a7.5 7.5 0 11-10.6 10.61l-11.15-11.15a7.5 7.5 0 01-2.2-5.3v-61.5a7.5 7.5 0 017.5-7.5h24.15v-83.12c0-2.57-.28-5.12-.81-7.6a22.76 22.76 0 01-16.76 7.37c-3.58 0-7.2-.85-10.58-2.64a22.52 22.52 0 01-11.05-13.37 22.52 22.52 0 011.64-17.28l20.77-39.16a7.5 7.5 0 01.37-14.98c53.04 0 96.65 41.2 100.5 93.28h122.67z"/>
  <path fill="#1c1918" d="M463.8 103.04l-221.3-38.9v15.22L455 116.73V455H15V116.73l212.5-37.37V64.13L6.2 103.04a7.5 7.5 0 00-6.2 7.39V462.5a7.5 7.5 0 007.5 7.5h455a7.5 7.5 0 007.5-7.5V110.43a7.5 7.5 0 00-6.2-7.39z"/>
  <path fill="#1c1918" d="M67.47 286.79a7.5 7.5 0 002.35 5.45l20.94 19.82a7.47 7.47 0 0010.6-.29 7.5 7.5 0 00-.29-10.6l-15.19-14.38 15.19-14.38a7.5 7.5 0 000-10.9l-15.19-14.37 15.19-14.37a7.5 7.5 0 000-10.9L85.88 207.5l15.19-14.38a7.5 7.5 0 10-10.31-10.9L69.8 202.06a7.5 7.5 0 000 10.9l15.2 14.37-15.2 14.38a7.5 7.5 0 000 10.89l15.2 14.37-15.2 14.38a7.5 7.5 0 00-2.34 5.45zM179.67 158.6a7.5 7.5 0 00-.37 14.98l-20.77 39.16a22.52 22.52 0 00-1.64 17.28 22.52 22.52 0 0011.05 13.37c3.37 1.8 7 2.64 10.58 2.64 6.3 0 12.42-2.63 16.76-7.37.53 2.48.8 5.03.8 7.6v83.11h-24.14a7.5 7.5 0 00-7.5 7.5v61.5c0 2 .8 3.9 2.2 5.31l11.15 11.15a7.48 7.48 0 0010.6 0 7.5 7.5 0 000-10.6l-8.95-8.96v-27.1h33.31c15.52 0 29.25-9.7 34.69-23.8h98.41a37.34 37.34 0 0027.19 23.03v53.28c0 1.99.79 3.9 2.2 5.3l11.14 11.15a7.48 7.48 0 0010.61 0 7.5 7.5 0 000-10.6l-8.95-8.96v-49.4h25.81v52.5c0 2 .8 3.9 2.2 5.31l11.15 11.15a7.48 7.48 0 0010.6 0 7.5 7.5 0 000-10.6l-8.95-8.96v-56.9a7.5 7.5 0 00-7.5-7.5h-14.8v-64.13c0-8.3-2.74-15.97-7.35-22.16h3.64A22.19 22.19 0 01425 289.04v38.18a7.5 7.5 0 1015 0v-38.18a37.2 37.2 0 00-37.16-37.16H280.17c-3.85-52.08-47.46-93.28-100.5-93.28zm189.72 108.28a22.19 22.19 0 0122.16 22.16v64.13h-11.01A22.2 22.2 0 01358.96 336v-29.12a7.5 7.5 0 10-15 0v22.5h-94.63v-12.5a7.5 7.5 0 10-15 0V336a22.2 22.2 0 01-21.58 17.18h-33.3v-8.8h24.14a7.5 7.5 0 007.5-7.5v-90.6c0-8.55-2.11-16.86-6.13-24.3l3.5-6.6a7.5 7.5 0 00-13.25-7.03l-9.87 18.62a7.68 7.68 0 01-13.56-7.2l23.7-44.68c39.77 7.45 69.97 42.4 69.97 84.3a7.5 7.5 0 007.5 7.5h96.44zM210 117.93c0 13.79 11.21 25 25 25s25-11.21 25-25a25.04 25.04 0 00-17.5-23.85v16.35c0 .29-.02.57-.05.85a9.95 9.95 0 012.55 6.65 10.01 10.01 0 01-20 0c0-2.55.97-4.88 2.55-6.65a7.71 7.71 0 01-.05-.85V94.08a25.04 25.04 0 00-17.5 23.85zM113.39 329.12H57.5a27.53 27.53 0 00-27.5 27.5 7.5 7.5 0 1015 0c0-6.9 5.6-12.5 12.5-12.5h55.88c6.9 0 12.5 5.6 12.5 12.5v55.88c0 6.9-5.6 12.5-12.5 12.5H57.5c-6.9 0-12.5-5.6-12.5-12.5v-25.89a7.5 7.5 0 10-15 0v25.89A27.53 27.53 0 0057.5 440h55.88a27.53 27.53 0 0027.5-27.5v-55.88a27.53 27.53 0 00-27.5-27.5z"/>
  <path fill="#ff382e" d="M227.5 110.43a7.5 7.5 0 1015 0V7.5a7.5 7.5 0 10-15 0v102.93z"/>
</svg>
