<?xml version="1.0" encoding="iso-8859-1"?>
<svg xmlns="http://www.w3.org/2000/svg" viewBox="0 0 470 470">
  <path fill="#fff" d="M187.17 321.8L235 383.43l47.83-61.63c-15.02-5.12-31.1-7.9-47.83-7.9s-32.81 2.78-47.83 7.9z"/>
  <path fill="#ff382e" d="M156.39 435H313.6v20H156.39z"/>
  <path fill="#ffb8b4" d="M351.1 455h32.32c-2.82-56.5-37.35-104.79-86.11-127.4l-71.7 92.4h95.5a7.5 7.5 0 017.5 7.5v35h15a7.5 7.5 0 017.5-7.5z"/>
  <path fill="#ff8882" d="M148.9 420h57.73l18.88-24.33-52.82-68.07C123.93 350.21 89.4 398.5 86.58 455h32.31a7.5 7.5 0 017.5 7.5h15v-35a7.5 7.5 0 017.5-7.5z"/>
  <path fill="#fff" d="M269.03 126.53c-5.75 7.02-14.5 11.64-23.65 11.64h-20.76c-9.16 0-17.9-4.62-23.66-11.64a70.61 70.61 0 00-36.51 61.81c0 38.9 31.64 70.55 70.55 70.55s70.55-31.64 70.55-70.55a70.6 70.6 0 00-36.52-61.8zm-46.23 67.81a7.5 7.5 0 01-14.85 1.5h-9.92a7.5 7.5 0 110-15h17.27a7.5 7.5 0 017.5 7.5v6zm49.17 1.5h-9.92a7.5 7.5 0 01-14.85-1.5v-6a7.5 7.5 0 017.5-7.5h17.27a7.5 7.5 0 110 15z"/>
  <path fill="#ff382e" d="M204.85 78.66l.97 6.92 3.43 24.23c.19 1.33.58 2.63 1.14 3.85l.09.18c2.55 5.36 8.25 9.33 14.14 9.33h20.76c5.88 0 11.57-3.96 14.11-9.27l.03-.07.1-.22c.56-1.2.95-2.48 1.13-3.8l4.4-31.15c.44-3.08-.32-5.93-2.13-8.02-1.81-2.08-4.53-3.23-7.64-3.23h-40.76c-3.12 0-5.83 1.15-7.64 3.23-1.81 2.09-2.57 4.94-2.13 8.02z"/>
  <path fill="#655f5e" d="M277.67 97.31l-2.07 14.6c-.04.35-.1.68-.17 1.02a85.62 85.62 0 0145.12 75.38V215a7.5 7.5 0 0015 0v-26.66c0-39.1-22.92-74.58-57.88-91.03z"/>
  <path fill="#3f3736" d="M149.45 215v-26.66a85.63 85.63 0 0145.12-75.4c-.06-.35-.13-.68-.17-1.03l-2.07-14.6c-34.96 16.45-57.88 51.93-57.88 91.03V215a7.5 7.5 0 0015 0z"/>
  <path fill="#3f3736" d="M156.13 104c9.8-9.19 21.26-16.74 34.02-22.13l-.16-1.1a25 25 0 015.66-19.96 25 25 0 0118.97-8.4h40.76a25 25 0 0118.97 8.4A25 25 0 01280 80.76l-.16 1.1a115.27 115.27 0 0134.02 22.15c.38-3.16.58-6.35.58-9.56C314.45 50.65 278.81 15 235 15s-79.45 35.64-79.45 79.45c0 3.21.2 6.4.58 9.56z"/>
  <path fill="#1c1918" d="M306.72 315.48l3.48-4.49a7.5 7.5 0 00-11.85-9.2l-5.85 7.54c-17.9-6.74-37.27-10.44-57.5-10.44s-39.6 3.7-57.5 10.44l-5.85-7.53a7.5 7.5 0 00-11.85 9.2l3.48 4.48C108.92 342.1 71.4 398 71.4 462.5a7.5 7.5 0 007.5 7.5h40a7.5 7.5 0 100-15H86.58c2.82-56.5 37.35-104.79 86.1-127.4l52.83 68.07L206.63 420h-57.74a7.5 7.5 0 00-7.5 7.5v35a7.5 7.5 0 007.5 7.5h172.22a7.5 7.5 0 007.5-7.5v-35a7.5 7.5 0 00-7.5-7.5h-95.5l71.7-92.4c48.76 22.61 83.29 70.9 86.11 127.4h-32.31a7.5 7.5 0 100 15h40a7.5 7.5 0 007.5-7.5c0-64.5-37.53-120.4-91.9-147.02zM235 383.43l-47.83-61.63c15.02-5.12 31.1-7.9 47.83-7.9s32.81 2.78 47.83 7.9L235 383.43zM313.6 455H156.4v-20h157.2v20zM141.95 237.5c7.18 0 13.6-3.4 17.71-8.66A85.62 85.62 0 00235 273.9a85.62 85.62 0 0075.34-45.05 22.47 22.47 0 0017.71 8.66c12.4 0 22.5-10.1 22.5-22.5v-26.66a115.5 115.5 0 00-24.05-70.41 94.65 94.65 0 002.95-23.48C329.45 42.37 287.08 0 235 0s-94.45 42.37-94.45 94.45c0 7.96 1 15.84 2.95 23.48a115.5 115.5 0 00-24.05 70.41V215c0 12.4 10.09 22.5 22.5 22.5zM235 15c43.81 0 79.45 35.64 79.45 79.45 0 3.21-.2 6.4-.58 9.56a115.27 115.27 0 00-34.02-22.14l.15-1.1a25 25 0 00-5.66-19.96 25 25 0 00-18.96-8.4h-40.76a25 25 0 00-18.97 8.4A25 25 0 00190 80.76l.16 1.1a115.3 115.3 0 00-34.03 22.15 80.2 80.2 0 01-.58-9.56C155.54 50.65 191.2 15 235 15zm100.55 200a7.5 7.5 0 01-15 0v-26.66a85.64 85.64 0 00-45.12-75.4c.06-.35.13-.68.17-1.03l2.07-14.6c34.96 16.45 57.88 51.93 57.88 91.03V215zM235 258.9a70.63 70.63 0 01-70.55-70.56 70.61 70.61 0 0136.52-61.8c5.75 7 14.5 11.63 23.65 11.63h20.76c9.16 0 17.9-4.62 23.66-11.64a70.6 70.6 0 0136.51 61.81A70.63 70.63 0 01235 258.9zM134.45 215v-26.66c0-39.1 22.92-74.58 57.88-91.03l2.07 14.6c.04.35.1.69.17 1.02a85.62 85.62 0 00-45.12 75.38v26.7a7.5 7.5 0 01-15-.01zm80.17-147.6h40.76c3.11 0 5.83 1.16 7.64 3.24 1.81 2.09 2.57 4.94 2.14 8.02l-4.4 31.15a13.98 13.98 0 01-1.13 3.8l-.11.23-.03.06c-2.54 5.31-8.23 9.27-14.11 9.27h-20.76c-5.88 0-11.6-3.97-14.13-9.3l-.1-.21a13.97 13.97 0 01-1.14-3.85l-3.42-24.2-.98-6.95c-.44-3.08.32-5.93 2.13-8.02 1.81-2.08 4.53-3.23 7.64-3.23z"/>
  <path fill="#1c1918" d="M215.3 180.84h-17.27a7.5 7.5 0 100 15h9.92a7.5 7.5 0 0014.85-1.5v-6a7.5 7.5 0 00-7.5-7.5zM271.97 180.84H254.7a7.5 7.5 0 00-7.5 7.5v6a7.5 7.5 0 0014.85 1.5h9.92a7.5 7.5 0 100-15z"/>
</svg>
